<svg id="BACKGROUND" xmlns="http://www.w3.org/2000/svg" viewBox="0 0 100 100"><defs><style>.cls-1{fill:#fac800;}</style></defs><path class="cls-1" d="M49,21c9.46,0,10.58,0,14.31.2a19.79,19.79,0,0,1,6.58,1.22,11.75,11.75,0,0,1,6.72,6.72,19.58,19.58,0,0,1,1.22,6.58c.17,3.73.21,4.85.21,14.31s0,10.58-.21,14.31a19.58,19.58,0,0,1-1.22,6.58,11.75,11.75,0,0,1-6.72,6.72,19.79,19.79,0,0,1-6.58,1.22C59.6,79,58.48,79,49,79s-10.57,0-14.31-.2a19.71,19.71,0,0,1-6.57-1.22A10.92,10.92,0,0,1,24.06,75a11.06,11.06,0,0,1-2.64-4.07,19.33,19.33,0,0,1-1.22-6.58C20,60.58,20,59.46,20,50s0-10.58.21-14.31a19.33,19.33,0,0,1,1.22-6.58A11.06,11.06,0,0,1,24.06,25a10.92,10.92,0,0,1,4.08-2.65,19.71,19.71,0,0,1,6.57-1.22C38.45,21,39.57,21,49,21m0-6.39c-9.62,0-10.82.05-14.6.22a26.16,26.16,0,0,0-8.6,1.64,17.5,17.5,0,0,0-6.27,4.09,17.25,17.25,0,0,0-4.08,6.27,25.88,25.88,0,0,0-1.65,8.6c-.17,3.78-.21,5-.21,14.6s0,10.82.21,14.6a25.82,25.82,0,0,0,1.65,8.6,17.25,17.25,0,0,0,4.08,6.27,17.5,17.5,0,0,0,6.27,4.09,26.16,26.16,0,0,0,8.6,1.64c3.78.17,5,.22,14.6.22s10.83,0,14.6-.22a26.11,26.11,0,0,0,8.6-1.64A18.18,18.18,0,0,0,82.58,73.2a26.34,26.34,0,0,0,1.65-8.6c.17-3.78.21-5,.21-14.6s0-10.82-.21-14.6a26.39,26.39,0,0,0-1.65-8.6A18.18,18.18,0,0,0,72.22,16.44a26.11,26.11,0,0,0-8.6-1.64c-3.77-.17-5-.22-14.6-.22"/><path class="cls-1" d="M49,31.81A18.19,18.19,0,1,0,67.21,50,18.19,18.19,0,0,0,49,31.81m0,30A11.81,11.81,0,1,1,60.83,50,11.8,11.8,0,0,1,49,61.81"/><path class="cls-1" d="M72.18,31.1a4.25,4.25,0,1,1-4.25-4.25,4.25,4.25,0,0,1,4.25,4.25"/></svg>