<svg id="BACKGROUND" xmlns="http://www.w3.org/2000/svg" viewBox="0 0 100 100"><defs><style>.cls-1{fill:#fac800;}</style></defs><path class="cls-1" d="M15.59,71.62A39.94,39.94,0,0,0,37.23,78c26.22,0,41-22.15,40.14-42a28.46,28.46,0,0,0,7-7.31,28.23,28.23,0,0,1-8.11,2.22,14.09,14.09,0,0,0,6.21-7.81,28.19,28.19,0,0,1-9,3.43A14.13,14.13,0,0,0,49.48,39.37a40.09,40.09,0,0,1-29.1-14.75,14.13,14.13,0,0,0,4.37,18.85,14,14,0,0,1-6.4-1.77,14.15,14.15,0,0,0,11.33,14A14.22,14.22,0,0,1,23.3,56a14.15,14.15,0,0,0,13.19,9.81A28.35,28.35,0,0,1,15.59,71.62Z"/></svg>