<svg xmlns="http://www.w3.org/2000/svg" xmlns:xlink="http://www.w3.org/1999/xlink" viewBox="0 0 100 100"><defs><style>.cls-1{fill:none;}.cls-2{fill:#fac800;}.cls-3{clip-path:url(#clip-path);}.cls-4{fill:#8537a4;}.cls-5{fill:#f390b0;}</style><clipPath id="clip-path"><rect class="cls-1" x="-782.13" y="154.53" width="750" height="500"/></clipPath></defs><g id="BACKGROUND"><path class="cls-2" d="M87.7,30.44a10.14,10.14,0,0,0-7.14-7.18C74.27,21.56,49,21.56,49,21.56s-25.24,0-31.54,1.7a10.12,10.12,0,0,0-7.13,7.18C8.66,36.78,8.66,50,8.66,50s0,13.22,1.69,19.56a10.12,10.12,0,0,0,7.13,7.18c6.3,1.7,31.54,1.7,31.54,1.7s25.25,0,31.54-1.7a10.14,10.14,0,0,0,7.14-7.18C89.39,63.22,89.39,50,89.39,50S89.39,36.78,87.7,30.44ZM40.77,62V38l21.1,12Z"/></g><g id="OBJECTS"><g class="cls-3"><path class="cls-4" d="M58,298.42c-3-25.79-14.22-50-27.95-72C-16.41,151.88-92.77,98.53-176.25,71.31s-173.68-29.58-260.5-16.5c-33.59,5.06-67.28,12.54-97.46,28.13S-591,123-603.63,154.57c-17.88,44.65-2.52,100.92,36.82,128.59,30.41,21.39,68.72,24.56,106.6,24.36,25.5,1.89,51.64,1.68,76.67,6.5,67.24,13,121.32,60.8,175.81,102.27,13.35,10.17,27.07,20.13,42.46,26.83,14.56,6.33,30.31,9.59,46.13,11,44.82,3.89,91.67-8,126.43-36.59S63.2,343.11,58,298.42Z"/><path class="cls-5" d="M30.06,290.57c-2.72-23.33-12.86-45.22-25.29-65.15C-37.23,158-106.3,109.77-181.81,85.15S-338.9,58.4-417.43,70.23c-30.38,4.57-60.85,11.34-88.15,25.44s-51.37,36.26-62.79,64.78c-16.17,40.39-2.28,91.29,33.31,116.32,27.5,19.34,62.16,22.21,96.41,22,23.07,1.71,46.72,1.52,69.35,5.88,60.82,11.72,109.74,55,159,92.5,12.08,9.2,24.48,18.21,38.4,24.27,13.17,5.72,27.42,8.67,41.72,9.92,40.54,3.52,82.92-7.26,114.36-33.09S34.77,331,30.06,290.57Z"/><path class="cls-2" d="M12.37,282.23C9.78,261,.1,241.09-11.76,223c-40.11-61.32-106-105.24-178.12-127.63S-339.86,71-414.82,81.73c-29,4.17-58.1,10.32-84.16,23.16s-49,33-59.94,59c-15.44,36.75-2.17,83.06,31.8,105.83,26.25,17.61,59.34,20.21,92,20.05,22,1.56,44.6,1.38,66.2,5.35,58.06,10.67,104.76,50,151.81,84.18,11.53,8.36,23.38,16.56,36.67,22.07,12.56,5.21,26.17,7.9,39.82,9,38.71,3.2,79.16-6.6,109.18-30.11S16.87,319,12.37,282.23Z"/></g></g></svg>