<svg id="Capa_1" data-name="Capa 1" xmlns="http://www.w3.org/2000/svg" viewBox="0 0 194.77 183.81"><defs><style>.cls-1{fill:#fff;}</style></defs><path class="cls-1" d="M23.82,98.81a3.45,3.45,0,0,0,.82.67c.37.15,1.06.32,1.17.17.25-.36.49-1.12.29-1.35-1.66-1.93-.21-2.81,1.19-3.64.95-.55,2.09-1,1.24-2.32s-1.71-.62-2.75-.18a10.6,10.6,0,0,1-3.11.5c-.66.06-1.33,0-2,0-.25-2.34,2.27-6.75,4.53-7.44-.08-.3-.07-.71-.27-.87-1.47-1.19-1.52-2.49-.39-3.93.07-.1.18-.24.16-.35a5.66,5.66,0,0,1,3-6c.68-.41,1.4-.77,2.1-1.14s2.07-.76,2.07-1.13c0-1.22,1.17-2.8-.71-3.68a6.55,6.55,0,0,1-1.07-1h2.37l-1.48-3.59-2.3.89-.3-3.72c.06,0,.47-.21.73-.09,1.46.66,1.67-.38,2-1.36s.65-1.93.95-2.91a2.89,2.89,0,0,0,.11-.93,29.67,29.67,0,0,1,.15-4.75c2.46,1.46,4.12.37,5.57-1.06a3.32,3.32,0,0,0,.91-2.16c0-.68-.59-1.36-.92-2l-1.74.9a3.58,3.58,0,0,1,.82-3.89q2.2-2.76,4.43-5.5A8.53,8.53,0,0,1,51,34.9l11-7.09c.27.28.83,1.25,1.33,1.22.7,0,1.39-.79,2-1.29,1.23-.94,2.31-2.24,3.69-2.82,2.44-1,1.54-2.35.75-3.8a5,5,0,0,0-.75-.84c.13-.17.21-.36.28-.35,2.12.1,3.76-1,5.59-1.83a4.94,4.94,0,0,1,5.31.23c1.08.81,2.36-.26,2.83-1.57.4-1.11.73-1.68,2.11-1.07.52.24,1.53-.47,2.24-.87,1.16-.64,2.22-1.45,3.39-2.07A9.94,9.94,0,0,1,93.06,12c1.34-.33,2.69-.6,4.33-1-.28,2,.23,2.48,1.74,2a7.88,7.88,0,0,1,2.71-.11,16.49,16.49,0,0,1,2.52.29c.54.11,1.34.23,1.52.6,1.06,2.11,2.64,1.24,3.79.49a5.38,5.38,0,0,1,4.08-.82c3.28.51,6.6.8,9.91,1.21a4.13,4.13,0,0,1,2.06.55c2.9,2.43,6.79,2,10,3.56.69.33,1.73-.07,2.76-.14-1.07,3.23,2,4.17,3.43,4.92a9.33,9.33,0,0,1,4,3.47c1.15,2.14,4,3.7,3.06,6.79,0,.1.2.29.44.62l1.89-1.67c0,1,0,1.59,0,2.17a11.57,11.57,0,0,0,.13,2.21c.31,1.36.74,2.69,1.14,4,.19.64.43,1.28.64,1.92a7,7,0,0,0,1.74-.81c1.23-1.05,2.27-.72,3.37,1.38l4.9-3.7.5.1c-.19,1-.37,2.06-.62,3.41,1.07,1.55,4.44.17,5.19,3.11-.87.74-2.27,1.26-1.64,3,.1.28-.78.92-1.45,1.67l2.54,2.79c.17.19.51.35.53.55.23,3.14,3,4.89,4.13,7.47a43.14,43.14,0,0,1,1.78,6h-1.83c0,.62.06,1.19.09,1.77.08,1.86.28,3.73.18,5.58,0,.58-1.28,1.11-1.28,1.67a20.86,20.86,0,0,0,.65,3.62c.45,2.6,1,5.18,1.22,7.8a33.72,33.72,0,0,1-.46,5.46c0,.26.06.57-.05.78-.67,1.41-2,2.85-1.92,4.19.11,1.55.53,3-.22,4.47a4.19,4.19,0,0,0-.09,1.88c0,.24.32.62.25.7-1.25,1.3-.66,2.78,0,4.41-2.41-.9-4.22.21-4.83,2.66-.35,1.38-.83,2.46-2.28,2.93-.32.11-.76.52-.77.8-.09,2-3.24,2.54-2.39,5a2.21,2.21,0,0,1-.95.54c-2.23.49-3.82,1.6-4.24,4a1,1,0,0,1-.47.57c-1.71.85-1.85,2.4-1.85,4a22.34,22.34,0,0,0,0,3.92c.51,2.89-.67,5.86.76,8.72a11.89,11.89,0,0,0,4.13,5.15,22.62,22.62,0,0,1,8.27,8.81c1.52,2.92,3.91,5.41,5.3,8.37.66,1.39.3,3.65-.37,5.17-.84,1.9-3.1,2-4.7,1.15a32.24,32.24,0,0,1-6.76-4.65,31.33,31.33,0,0,0-10.61-6.34,9.88,9.88,0,0,0-4.05-.42,3.51,3.51,0,0,0-3,2.76c-.48,1.53-1.55,1.63-2.5.5-2.49-3-5.53-2.82-8.61-1.44a55.49,55.49,0,0,0-7,4,14.27,14.27,0,0,1-11.7,2,13.41,13.41,0,0,1-3.1-1.81c-.6-.36-1.2-.95-1.82-1a51,51,0,0,0-6.66,0c-.71.06-1.35.88-2,1.33a5.8,5.8,0,0,1-1.91,1.15c-4.71.76-9.41,1.07-14.12-.23a10,10,0,0,0-4.43-.29A8.78,8.78,0,0,1,72,167a19.22,19.22,0,0,0-3.46-1.42c-.52-.14-1.2.31-1.81.49.45.34.9.68,1.37,1,.21.13.45.22.79.39-.72,1.67-2.21,1.93-3.57,1.93-2.23,0-4.45-.33-6.68-.47a8,8,0,0,0-2.54.09c-2,.5-3.86.81-5.49-.94-.3-.32-1.12-.1-1.69-.22-.41-.09-1-.22-1.13-.51a1.3,1.3,0,0,1,.31-1.19,13.7,13.7,0,0,1,2.37-1.53,9.5,9.5,0,0,0,1.75-.92c-1.78-.88-3.24-1.74-5.35-.31s-4.91,2.18-7.45,3.08c-1.26.45-1.87-.4-1.88-1.57,0-2.76,0-5.52.13-8.27a6,6,0,0,1,3.38-5,9.26,9.26,0,0,0,4.25-4c.31-.64,1.26-1,1.92-1.44l.52.5a7,7,0,0,0-1,2.16,7.73,7.73,0,0,0,.54,2.41,13.63,13.63,0,0,0,2.2-1,24.35,24.35,0,0,1,2.84-2.12c.91-.4,1.47-.72.91-1.65-.77-1.27-.32-2.19.51-3.2a5.41,5.41,0,0,0,1.32-2.39c.35-2.2,1.21-3.85,3.4-4.69a1.68,1.68,0,0,0,.11-1.51c-.87-.86-1.92-1.39-3.18-.58s-2.06.59-2.12-1-.55-2.38-2.32-1.87c-.49.14-1.12-.32-1.69-.35s-1.41-.09-1.74.24c-1.07,1.09-1.65.82-2.11-.46-.11-.31-.2-.75-.43-.87-2.57-1.33-1.86-3.37-1.29-5.45a2.14,2.14,0,0,0-.23-1.43c-.72-1.34-1.53-2.64-2.3-4-.16-.28-.27-.8-.46-.83-3.2-.48-3.15-4.41-5.82-5.43-.11,0-.27-.18-.27-.28-.08-2.86-2.13-3.87-4.39-4.71a.48.48,0,0,1-.27-.27c-.65-2.35-2.47-3.34-4.46-4.47-1.09-.62-1.46-2.53-2.16-3.86ZM87,111l.24.68c1-.38,2.06-.82,3.12-1.13,2.12-.63,4.36-1.9,6.36-1.61,2.73.4,5.07-.69,7.6-.83a1.68,1.68,0,0,0,1.26-1c.09-.4-.37-1-.74-1.41-.54-.56-1.4-.87-1.81-1.49-1.9-2.87-4.53-3.32-7.63-2.62a9.86,9.86,0,0,1-2,.18c-2.1.06-3.53-.89-3.66-2.51-.17-2,1.28-2.67,2.86-3.2s2.82-1,4.23-1.55A2,2,0,0,1,98,94.36a5.29,5.29,0,0,0,6.55-2.3,12.06,12.06,0,0,0,1-7.2c-.38-2.34-1.93-4.51-3.1-6.68s-.62-3.84,1.83-4.47a19.8,19.8,0,0,0,3.82-1c3.59-1.77,7-2.07,10.44.37.44.31,1.26.08,1.91.1a6.2,6.2,0,0,0-1-1.74c-1.49-1.38-3.12-2.61-4.61-4a9.82,9.82,0,0,0-8.31-2.81c-1.76.25-3.52.51-5.27.8-3.71.61-7.31.9-10.57-1.65-1.2-.93-2.57-.62-3.79.43A16.09,16.09,0,0,1,84.13,66c-.75.4-1.77.53-2.26,1.13A11.32,11.32,0,0,0,80.61,70a19.19,19.19,0,0,0,2.59,1A4.11,4.11,0,0,0,85,70.71c4.64-1.28,8.82.09,12.87,2.18,1.56.8,1.69,1.85.54,3.15-.65.73-1.19,1.56-1.84,2.29-2.16,2.37-3.81,5.17-6.56,7-4.74,3.24-9.63,4.19-15,1.88-1.19-.51-2.69-1-3.27.88-2.08,6.71-1.69,10.59,4.32,14,1.32.76,1.43,1.76,1.32,3.15a20.54,20.54,0,0,0,.24,6,3.79,3.79,0,0,0,2.36,2.46c.78.18,2.2-.78,2.77-1.62a17.1,17.1,0,0,1,7.6-6.11,11.61,11.61,0,0,1,7.12-1.2C93.89,107.5,89.39,107.55,87,111Zm24.75-25.15c.3-.15.13,0,0,0-.77,0-1.54,0-2.3,0a8,8,0,0,1,.43-1.85c1-2.18,2.92-2.93,5.2-2.83,1.31.06,2.62.38,3.92.32a6.87,6.87,0,0,0,2.2-.9c-.54-.66-1-1.67-1.64-1.93-3.64-1.33-7.45-1.31-9.94,2.6a19.92,19.92,0,0,1-1.7,2.18c-1.12,1.33-1,2.55,0,3.93a13.15,13.15,0,0,1,2,3.6c1.36,4.31,2.56,8.66,3.79,13,.42,1.49,1,2.77,2.25,3.27,1.22-1.45,2.23-2.69,3.29-3.89.74-.84,1.58-1.59,2.32-2.44a4.72,4.72,0,0,0,.66-5.68,8.36,8.36,0,0,0-5.39-4.59c-1.43-.36-2.79-1-4.18-1.46l.1-.36,1.81-.26Zm-6.12,32c-2.91-.82-5.54-1.68-8.23-2.29a14.43,14.43,0,0,0-12.78,3,3.06,3.06,0,0,0-.88,2.37c0,.38,1.36.91,2.07.88,2.19-.1,4.38-.44,6.37-.67l.45-2.66a13.53,13.53,0,0,1,2.72.78C99.06,121.16,102.32,120.26,105.65,117.83ZM81.09,132.18l.19.51a11,11,0,0,1,2.72.73c1.75,1,3.4,1.64,5.33.41.41-.27,1.15,0,1.73,0,1.34-.13,2.67-.28,4-.47s2.93-.48,4.4-.74c.66-.12,1.32-.27,2-.41-.43-.67-.73-1.77-1.3-1.92a19,19,0,0,0-6.26-1.07,85.12,85.12,0,0,0-10.44,1.73A9.1,9.1,0,0,0,81.09,132.18Zm6.61-55.1a9.58,9.58,0,0,0-10.11-1.93C76.2,75.68,74.93,76.22,75,78c0,.54-.06,1.09-.09,1.64a10.38,10.38,0,0,0,1.85,0c2.7-.5,5.39-1,8.08-1.6A28.84,28.84,0,0,0,87.7,77.08ZM46.26,36.81c-2.39-1-6.51,1.82-6.08,4.47a2.24,2.24,0,0,0,1.5,1.48,2.57,2.57,0,0,0,2.13-.86A49.13,49.13,0,0,0,46.26,36.81ZM34.11,53.24c-.16,2-.14,3.71,1.5,4.22.92.28,2.29-.53,3.29-1.13a2,2,0,0,0,.28-1.86C38,52.2,36,53.66,34.11,53.24Zm42.22,29L85.22,80C83.25,78.84,79.16,79.65,76.33,82.2Zm10.08,4.43-.22-1.22-5.79.9.15,1.07Zm32.39-2.76c-2-2.3-4.23-2.46-5.8-.75ZM168.14,64.6l.85.56,1.51-2.23a10.08,10.08,0,0,0-1.05-.57C169,63.07,168.56,63.84,168.14,64.6Z"/></svg>